<mxfile host="app.diagrams.net" agent="Mozilla/5.0 (Windows NT 10.0; Win64; x64) AppleWebKit/537.36 (KHTML, like Gecko) Chrome/128.0.0.0 Safari/537.36" version="24.7.5">
  <diagram name="第 1 页" id="jXrtxThueCKxh71ctZF0">
    <mxGraphModel dx="1434" dy="784" grid="1" gridSize="10" guides="1" tooltips="1" connect="1" arrows="1" fold="1" page="1" pageScale="1" pageWidth="827" pageHeight="1169" math="0" shadow="0">
      <root>
        <mxCell id="0" />
        <mxCell id="1" parent="0" />
        <mxCell id="jtO47paWZdQGWvAdWAN4-6" style="edgeStyle=orthogonalEdgeStyle;rounded=0;orthogonalLoop=1;jettySize=auto;html=1;exitX=0.5;exitY=0;exitDx=0;exitDy=0;entryX=0;entryY=0.5;entryDx=0;entryDy=0;" edge="1" parent="1" source="jtO47paWZdQGWvAdWAN4-1" target="jtO47paWZdQGWvAdWAN4-3">
          <mxGeometry relative="1" as="geometry" />
        </mxCell>
        <mxCell id="jtO47paWZdQGWvAdWAN4-19" style="edgeStyle=orthogonalEdgeStyle;rounded=0;orthogonalLoop=1;jettySize=auto;html=1;exitX=1;exitY=0.5;exitDx=0;exitDy=0;entryX=0;entryY=0.5;entryDx=0;entryDy=0;" edge="1" parent="1" source="jtO47paWZdQGWvAdWAN4-1" target="jtO47paWZdQGWvAdWAN4-12">
          <mxGeometry relative="1" as="geometry" />
        </mxCell>
        <mxCell id="jtO47paWZdQGWvAdWAN4-42" style="edgeStyle=orthogonalEdgeStyle;rounded=0;orthogonalLoop=1;jettySize=auto;html=1;exitX=0;exitY=0.5;exitDx=0;exitDy=0;entryX=1;entryY=0.5;entryDx=0;entryDy=0;" edge="1" parent="1" source="jtO47paWZdQGWvAdWAN4-1" target="jtO47paWZdQGWvAdWAN4-27">
          <mxGeometry relative="1" as="geometry" />
        </mxCell>
        <mxCell id="jtO47paWZdQGWvAdWAN4-44" style="edgeStyle=orthogonalEdgeStyle;rounded=0;orthogonalLoop=1;jettySize=auto;html=1;exitX=0.5;exitY=1;exitDx=0;exitDy=0;entryX=0.5;entryY=0;entryDx=0;entryDy=0;curved=1;" edge="1" parent="1" source="jtO47paWZdQGWvAdWAN4-1" target="jtO47paWZdQGWvAdWAN4-20">
          <mxGeometry relative="1" as="geometry" />
        </mxCell>
        <mxCell id="jtO47paWZdQGWvAdWAN4-1" value="&lt;font style=&quot;font-size: 24px;&quot;&gt;自我介绍&lt;/font&gt;" style="rounded=1;whiteSpace=wrap;html=1;" vertex="1" parent="1">
          <mxGeometry x="354" y="340" width="120" height="60" as="geometry" />
        </mxCell>
        <mxCell id="jtO47paWZdQGWvAdWAN4-3" value="&lt;font style=&quot;font-size: 18px;&quot;&gt;基本情况&lt;/font&gt;" style="rounded=1;whiteSpace=wrap;html=1;" vertex="1" parent="1">
          <mxGeometry x="510" y="220" width="110" height="60" as="geometry" />
        </mxCell>
        <mxCell id="jtO47paWZdQGWvAdWAN4-7" value="&lt;font style=&quot;font-size: 14px;&quot;&gt;姓名：张天果&lt;/font&gt;" style="text;html=1;align=center;verticalAlign=middle;resizable=0;points=[];autosize=1;strokeColor=none;fillColor=none;" vertex="1" parent="1">
          <mxGeometry x="660" y="210" width="110" height="30" as="geometry" />
        </mxCell>
        <mxCell id="jtO47paWZdQGWvAdWAN4-8" value="&lt;font style=&quot;font-size: 14px;&quot;&gt;&amp;nbsp;年龄：&amp;nbsp; 20&lt;/font&gt;" style="text;html=1;align=left;verticalAlign=middle;resizable=0;points=[];autosize=1;strokeColor=none;fillColor=none;" vertex="1" parent="1">
          <mxGeometry x="670" y="270" width="90" height="30" as="geometry" />
        </mxCell>
        <mxCell id="jtO47paWZdQGWvAdWAN4-10" style="edgeStyle=orthogonalEdgeStyle;rounded=0;orthogonalLoop=1;jettySize=auto;html=1;exitX=1;exitY=0.25;exitDx=0;exitDy=0;entryX=0.082;entryY=0.467;entryDx=0;entryDy=0;entryPerimeter=0;curved=1;" edge="1" parent="1" source="jtO47paWZdQGWvAdWAN4-3" target="jtO47paWZdQGWvAdWAN4-7">
          <mxGeometry relative="1" as="geometry" />
        </mxCell>
        <mxCell id="jtO47paWZdQGWvAdWAN4-11" style="edgeStyle=orthogonalEdgeStyle;rounded=0;orthogonalLoop=1;jettySize=auto;html=1;exitX=1;exitY=0.75;exitDx=0;exitDy=0;entryX=0.018;entryY=0.6;entryDx=0;entryDy=0;entryPerimeter=0;curved=1;" edge="1" parent="1" source="jtO47paWZdQGWvAdWAN4-3" target="jtO47paWZdQGWvAdWAN4-8">
          <mxGeometry relative="1" as="geometry" />
        </mxCell>
        <mxCell id="jtO47paWZdQGWvAdWAN4-12" value="&lt;span style=&quot;font-size: 18px;&quot;&gt;兴趣爱好&lt;/span&gt;" style="rounded=1;whiteSpace=wrap;html=1;" vertex="1" parent="1">
          <mxGeometry x="510" y="340" width="110" height="60" as="geometry" />
        </mxCell>
        <mxCell id="jtO47paWZdQGWvAdWAN4-13" value="&lt;span style=&quot;font-size: 14px;&quot;&gt;运动：乒乓球&lt;/span&gt;" style="text;html=1;align=center;verticalAlign=middle;resizable=0;points=[];autosize=1;strokeColor=none;fillColor=none;" vertex="1" parent="1">
          <mxGeometry x="660" y="310" width="110" height="30" as="geometry" />
        </mxCell>
        <mxCell id="jtO47paWZdQGWvAdWAN4-14" value="&lt;span style=&quot;font-size: 14px;&quot;&gt;听歌&lt;/span&gt;" style="text;html=1;align=center;verticalAlign=middle;resizable=0;points=[];autosize=1;strokeColor=none;fillColor=none;" vertex="1" parent="1">
          <mxGeometry x="710" y="410" width="50" height="30" as="geometry" />
        </mxCell>
        <mxCell id="jtO47paWZdQGWvAdWAN4-15" style="edgeStyle=orthogonalEdgeStyle;rounded=0;orthogonalLoop=1;jettySize=auto;html=1;exitX=1;exitY=0.25;exitDx=0;exitDy=0;entryX=0.082;entryY=0.467;entryDx=0;entryDy=0;entryPerimeter=0;curved=1;" edge="1" parent="1" source="jtO47paWZdQGWvAdWAN4-12" target="jtO47paWZdQGWvAdWAN4-13">
          <mxGeometry relative="1" as="geometry" />
        </mxCell>
        <mxCell id="jtO47paWZdQGWvAdWAN4-16" style="edgeStyle=orthogonalEdgeStyle;rounded=0;orthogonalLoop=1;jettySize=auto;html=1;exitX=1;exitY=0.75;exitDx=0;exitDy=0;entryX=0.018;entryY=0.6;entryDx=0;entryDy=0;entryPerimeter=0;curved=1;" edge="1" parent="1" source="jtO47paWZdQGWvAdWAN4-12" target="jtO47paWZdQGWvAdWAN4-14">
          <mxGeometry relative="1" as="geometry" />
        </mxCell>
        <mxCell id="jtO47paWZdQGWvAdWAN4-17" value="&lt;span style=&quot;font-size: 14px;&quot;&gt;读书&lt;/span&gt;" style="text;html=1;align=center;verticalAlign=middle;resizable=0;points=[];autosize=1;strokeColor=none;fillColor=none;" vertex="1" parent="1">
          <mxGeometry x="680" y="356" width="50" height="30" as="geometry" />
        </mxCell>
        <mxCell id="jtO47paWZdQGWvAdWAN4-18" style="edgeStyle=orthogonalEdgeStyle;rounded=0;orthogonalLoop=1;jettySize=auto;html=1;exitX=1;exitY=0.5;exitDx=0;exitDy=0;entryX=0.02;entryY=0.467;entryDx=0;entryDy=0;entryPerimeter=0;curved=0;" edge="1" parent="1" source="jtO47paWZdQGWvAdWAN4-12" target="jtO47paWZdQGWvAdWAN4-17">
          <mxGeometry relative="1" as="geometry" />
        </mxCell>
        <mxCell id="jtO47paWZdQGWvAdWAN4-46" style="edgeStyle=orthogonalEdgeStyle;rounded=0;orthogonalLoop=1;jettySize=auto;html=1;exitX=0.5;exitY=1;exitDx=0;exitDy=0;entryX=0.5;entryY=0;entryDx=0;entryDy=0;curved=1;" edge="1" parent="1" source="jtO47paWZdQGWvAdWAN4-20" target="jtO47paWZdQGWvAdWAN4-45">
          <mxGeometry relative="1" as="geometry" />
        </mxCell>
        <mxCell id="jtO47paWZdQGWvAdWAN4-20" value="&lt;span style=&quot;font-size: 18px;&quot;&gt;期许职业方向&lt;/span&gt;" style="rounded=1;whiteSpace=wrap;html=1;" vertex="1" parent="1">
          <mxGeometry x="370" y="446" width="140" height="60" as="geometry" />
        </mxCell>
        <mxCell id="jtO47paWZdQGWvAdWAN4-27" value="&lt;span style=&quot;font-size: 18px;&quot;&gt;家乡&lt;/span&gt;" style="rounded=1;whiteSpace=wrap;html=1;" vertex="1" parent="1">
          <mxGeometry x="200" y="341" width="110" height="59" as="geometry" />
        </mxCell>
        <mxCell id="jtO47paWZdQGWvAdWAN4-37" value="&lt;div&gt;&lt;span style=&quot;font-size: 18px;&quot;&gt;名称：&lt;/span&gt;&lt;span style=&quot;font-size: 18px; background-color: initial;&quot;&gt;陕西省渭南市&lt;/span&gt;&lt;/div&gt;" style="ellipse;whiteSpace=wrap;html=1;" vertex="1" parent="1">
          <mxGeometry x="50" y="245" width="210" height="80" as="geometry" />
        </mxCell>
        <mxCell id="jtO47paWZdQGWvAdWAN4-38" style="edgeStyle=orthogonalEdgeStyle;rounded=0;orthogonalLoop=1;jettySize=auto;html=1;exitX=0;exitY=0.5;exitDx=0;exitDy=0;entryX=0.462;entryY=0.975;entryDx=0;entryDy=0;entryPerimeter=0;" edge="1" parent="1" source="jtO47paWZdQGWvAdWAN4-27" target="jtO47paWZdQGWvAdWAN4-37">
          <mxGeometry relative="1" as="geometry" />
        </mxCell>
        <mxCell id="jtO47paWZdQGWvAdWAN4-40" value="&lt;div&gt;&lt;b style=&quot;color: rgb(32, 33, 34); font-family: sans-serif; font-size: 16px; text-align: start; background-color: rgb(255, 255, 255);&quot;&gt;&lt;br&gt;&lt;/b&gt;&lt;/div&gt;&lt;b style=&quot;color: rgb(32, 33, 34); font-family: sans-serif; font-size: 16px; text-align: start; background-color: rgb(255, 255, 255);&quot;&gt;渭南市&lt;/b&gt;&lt;span style=&quot;color: rgb(32, 33, 34); font-family: sans-serif; font-size: 16px; text-align: start; background-color: rgb(255, 255, 255);&quot;&gt;位于陕西省东部，因地处渭河&lt;/span&gt;&lt;span style=&quot;color: rgb(32, 33, 34); font-family: sans-serif; font-size: 16px; text-align: start; background-color: rgb(255, 255, 255);&quot;&gt;南岸而得名。&lt;/span&gt;&lt;span style=&quot;color: rgb(32, 33, 34); font-family: sans-serif; font-size: 16px; text-align: start; background-color: rgb(255, 255, 255);&quot;&gt;渭南&lt;/span&gt;&lt;span style=&quot;color: rgb(32, 33, 34); font-family: sans-serif; font-size: 16px; text-align: start; background-color: rgb(255, 255, 255);&quot;&gt;也是中原地区&lt;/span&gt;&lt;span style=&quot;color: rgb(32, 33, 34); font-family: sans-serif; font-size: 16px; text-align: start; background-color: rgb(255, 255, 255);&quot;&gt;通往中国西北地区&lt;/span&gt;&lt;span style=&quot;color: rgb(32, 33, 34); font-family: sans-serif; font-size: 16px; text-align: start; background-color: rgb(255, 255, 255);&quot;&gt;的门户，被誉为“陕西东大门”，&lt;/span&gt;&lt;div&gt;&lt;span style=&quot;background-color: rgb(255, 255, 255); color: rgb(32, 33, 34); font-family: sans-serif; font-size: 16px; text-align: start;&quot;&gt;交通发达&lt;/span&gt;&lt;br&gt;&lt;/div&gt;&lt;div&gt;&lt;span style=&quot;color: rgb(32, 33, 34); font-family: sans-serif; font-size: 16px; text-align: start; background-color: rgb(255, 255, 255);&quot;&gt;素有“&lt;b&gt;三秦要道，八省通衢&lt;/b&gt;”之称。&lt;/span&gt;&lt;/div&gt;" style="shape=document;whiteSpace=wrap;html=1;boundedLbl=1;" vertex="1" parent="1">
          <mxGeometry x="10" y="446" width="320" height="170" as="geometry" />
        </mxCell>
        <mxCell id="jtO47paWZdQGWvAdWAN4-41" style="edgeStyle=orthogonalEdgeStyle;rounded=0;orthogonalLoop=1;jettySize=auto;html=1;exitX=0.5;exitY=1;exitDx=0;exitDy=0;entryX=0.453;entryY=-0.006;entryDx=0;entryDy=0;entryPerimeter=0;curved=1;" edge="1" parent="1" source="jtO47paWZdQGWvAdWAN4-27" target="jtO47paWZdQGWvAdWAN4-40">
          <mxGeometry relative="1" as="geometry" />
        </mxCell>
        <mxCell id="jtO47paWZdQGWvAdWAN4-45" value="&lt;font style=&quot;font-size: 14px;&quot;&gt;后端程序开发，开发面向用户的优质程序，写出优雅有效的代码。&lt;/font&gt;" style="shape=document;whiteSpace=wrap;html=1;boundedLbl=1;" vertex="1" parent="1">
          <mxGeometry x="380" y="540" width="180" height="110" as="geometry" />
        </mxCell>
        <mxCell id="jtO47paWZdQGWvAdWAN4-47" value="&lt;h1 style=&quot;margin-top: 0px;&quot;&gt;联系方式&lt;/h1&gt;&lt;p&gt;.手机：13810160345&lt;/p&gt;&lt;p&gt;&amp;nbsp;邮箱：zhangguoa2022@outlook&lt;/p&gt;&lt;p&gt;&lt;br&gt;&lt;/p&gt;&lt;p&gt;&lt;br&gt;&lt;/p&gt;" style="text;html=1;whiteSpace=wrap;overflow=hidden;rounded=0;" vertex="1" parent="1">
          <mxGeometry x="240" y="150" width="180" height="120" as="geometry" />
        </mxCell>
      </root>
    </mxGraphModel>
  </diagram>
</mxfile>
